<svg width="49" height="40" viewBox="0 0 49 40" fill="none" xmlns="http://www.w3.org/2000/svg">
<g clip-path="url(#clip0_1479_9624)">
<path fill-rule="evenodd" clip-rule="evenodd" d="M46.4165 38.9019C46.4165 38.9019 49.4998 38.9019 49.4998 35.7908C49.4998 32.6797 46.4165 23.3463 34.0832 23.3463C21.7498 23.3463 18.6665 32.6797 18.6665 35.7908C18.6665 38.9019 21.7498 38.9019 21.7498 38.9019H46.4165ZM21.8177 35.7908H46.3487C46.3631 35.7891 46.3775 35.787 46.3918 35.7845L46.4165 35.7783C46.4103 34.957 45.9016 32.5739 44.0732 30.4272C42.3712 28.4143 39.3803 26.4574 34.0832 26.4574C28.7891 26.4574 25.7983 28.4174 24.0932 30.4272C22.2648 32.5739 21.7529 34.9601 21.7498 35.7783C21.7724 35.7827 21.795 35.7869 21.8177 35.7908ZM34.0832 17.1241C35.7187 17.1241 37.2872 16.4685 38.4437 15.3017C39.6001 14.1348 40.2498 12.5521 40.2498 10.9019C40.2498 9.25164 39.6001 7.66899 38.4437 6.5021C37.2872 5.33521 35.7187 4.67965 34.0832 4.67965C32.4477 4.67965 30.8792 5.33521 29.7227 6.5021C28.5662 7.66899 27.9165 9.25164 27.9165 10.9019C27.9165 12.5521 28.5662 14.1348 29.7227 15.3017C30.8792 16.4685 32.4477 17.1241 34.0832 17.1241ZM43.3332 10.9019C43.3332 12.1275 43.0939 13.3412 42.6291 14.4736C42.1642 15.606 41.4828 16.6349 40.6239 17.5015C39.765 18.3682 38.7453 19.0557 37.623 19.5248C36.5007 19.9938 35.2979 20.2352 34.0832 20.2352C32.8684 20.2352 31.6656 19.9938 30.5433 19.5248C29.4211 19.0557 28.4014 18.3682 27.5424 17.5015C26.6835 16.6349 26.0021 15.606 25.5373 14.4736C25.0724 13.3412 24.8332 12.1275 24.8332 10.9019C24.8332 8.42652 25.8077 6.05255 27.5424 4.30221C29.2771 2.55187 31.6299 1.56854 34.0832 1.56854C36.5364 1.56854 38.8892 2.55187 40.6239 4.30221C42.3586 6.05255 43.3332 8.42652 43.3332 10.9019ZM21.5525 24.2174C20.3191 23.8255 19.0477 23.5679 17.76 23.449C17.0364 23.3796 16.31 23.3453 15.5832 23.3463C3.24984 23.3463 0.166504 32.6797 0.166504 35.7908C0.166504 37.8659 1.19325 38.9019 3.24984 38.9019H16.2492C15.7921 37.9306 15.5641 36.8658 15.5832 35.7908C15.5832 32.6485 16.7456 29.4379 18.944 26.7561C19.6933 25.8414 20.5658 24.9859 21.5525 24.2174ZM15.3365 26.4574C10.1935 26.5197 7.27359 28.4485 5.59317 30.4272C3.75242 32.5863 3.24984 34.9788 3.24984 35.7908H12.4998C12.4998 32.5397 13.4958 29.301 15.3365 26.4574ZM4.7915 12.4574C4.7915 9.98208 5.76605 7.60811 7.50077 5.85777C9.23548 4.10743 11.5883 3.1241 14.0415 3.1241C16.4948 3.1241 18.8475 4.10743 20.5822 5.85777C22.317 7.60811 23.2915 9.98208 23.2915 12.4574C23.2915 14.9328 22.317 17.3068 20.5822 19.0571C18.8475 20.8074 16.4948 21.7908 14.0415 21.7908C11.5883 21.7908 9.23548 20.8074 7.50077 19.0571C5.76605 17.3068 4.7915 14.9328 4.7915 12.4574ZM14.0415 6.23521C12.406 6.23521 10.8375 6.89076 9.68101 8.05766C8.52454 9.22455 7.87484 10.8072 7.87484 12.4574C7.87484 14.1077 8.52454 15.6903 9.68101 16.8572C10.8375 18.0241 12.406 18.6797 14.0415 18.6797C15.677 18.6797 17.2455 18.0241 18.402 16.8572C19.5585 15.6903 20.2082 14.1077 20.2082 12.4574C20.2082 10.8072 19.5585 9.22455 18.402 8.05766C17.2455 6.89076 15.677 6.23521 14.0415 6.23521Z" fill="#ffffff"/>
</g>
<defs>
<clipPath id="clip0_1479_9624">
<rect width="48" height="39.5295" fill="white" transform="translate(0.5 0.235229)"/>
</clipPath>
</defs>
</svg>
