<svg width="132" height="23" viewBox="0 0 132 23" fill="none" xmlns="http://www.w3.org/2000/svg">
<g clip-path="url(#clip0_1479_9675)">
<path d="M21.0964 8.41939C21.0387 8.24958 20.9326 8.10037 20.7911 7.99018C20.6496 7.87999 20.479 7.81365 20.3002 7.79934L15.0711 7.38383L12.8083 2.37482C12.7362 2.21349 12.619 2.07646 12.4708 1.98028C12.3225 1.88409 12.1496 1.83286 11.973 1.83276C11.7963 1.83267 11.6233 1.88371 11.475 1.97973C11.3267 2.07575 11.2093 2.21265 11.1371 2.3739L8.87424 7.38383L3.64509 7.79934C3.4694 7.81326 3.30144 7.8775 3.1613 7.98438C3.02116 8.09125 2.91478 8.23624 2.85489 8.40199C2.79499 8.56774 2.78412 8.74724 2.82356 8.91901C2.86301 9.09078 2.95111 9.24755 3.07732 9.37056L6.94163 13.1376L5.57495 19.0556C5.53345 19.2348 5.54675 19.4222 5.61313 19.5937C5.6795 19.7652 5.79588 19.9128 5.94717 20.0173C6.09845 20.1218 6.27766 20.1785 6.46153 20.1799C6.64541 20.1813 6.82546 20.1274 6.97832 20.0252L11.9727 16.6956L16.967 20.0252C17.1232 20.1289 17.3075 20.1823 17.495 20.1782C17.6825 20.1741 17.8642 20.1126 18.0158 20.0022C18.1673 19.8917 18.2814 19.7374 18.3426 19.5602C18.4039 19.3829 18.4094 19.1912 18.3584 19.0107L16.6808 13.1404L20.8414 9.39625C21.1138 9.15043 21.2138 8.76702 21.0964 8.41939Z" fill="#F3CD03"/>
<path d="M48.1115 8.41939C48.0539 8.24958 47.9478 8.10037 47.8063 7.99018C47.6648 7.87999 47.4941 7.81365 47.3154 7.79934L42.0862 7.38383L39.8234 2.37482C39.7513 2.21349 39.6341 2.07646 39.4859 1.98028C39.3377 1.88409 39.1648 1.83286 38.9881 1.83276C38.8114 1.83267 38.6385 1.88371 38.4901 1.97973C38.3418 2.07575 38.2244 2.21265 38.1522 2.3739L35.8894 7.38383L30.6602 7.79934C30.4845 7.81326 30.3166 7.8775 30.1764 7.98438C30.0363 8.09125 29.9299 8.23624 29.87 8.40199C29.8101 8.56774 29.7993 8.74724 29.8387 8.91901C29.8781 9.09078 29.9662 9.24755 30.0925 9.37056L33.9568 13.1376L32.5901 19.0556C32.5486 19.2348 32.5619 19.4222 32.6283 19.5937C32.6946 19.7652 32.811 19.9128 32.9623 20.0173C33.1136 20.1218 33.2928 20.1785 33.4767 20.1799C33.6605 20.1813 33.8406 20.1274 33.9935 20.0252L38.9878 16.6956L43.9821 20.0252C44.1384 20.1289 44.3226 20.1823 44.5101 20.1782C44.6976 20.1741 44.8794 20.1126 45.0309 20.0022C45.1824 19.8917 45.2965 19.7374 45.3578 19.5602C45.419 19.3829 45.4246 19.1912 45.3736 19.0107L43.696 13.1404L47.8565 9.39625C48.129 9.15043 48.2289 8.76702 48.1115 8.41939Z" fill="#F3CD03"/>
<path d="M75.1228 8.41939C75.0651 8.24958 74.959 8.10037 74.8175 7.99018C74.676 7.87999 74.5054 7.81365 74.3266 7.79934L69.0974 7.38383L66.8346 2.37482C66.7626 2.21349 66.6453 2.07646 66.4971 1.98028C66.3489 1.88409 66.176 1.83286 65.9993 1.83276C65.8226 1.83267 65.6497 1.88371 65.5014 1.97973C65.353 2.07575 65.2357 2.21265 65.1634 2.3739L62.9006 7.38383L57.6715 7.79934C57.4958 7.81326 57.3278 7.8775 57.1877 7.98438C57.0475 8.09125 56.9411 8.23624 56.8813 8.40199C56.8214 8.56774 56.8105 8.74724 56.8499 8.91901C56.8894 9.09078 56.9775 9.24755 57.1037 9.37056L60.968 13.1376L59.6013 19.0556C59.5598 19.2348 59.5731 19.4222 59.6395 19.5937C59.7059 19.7652 59.8222 19.9128 59.9735 20.0173C60.1248 20.1218 60.304 20.1785 60.4879 20.1799C60.6718 20.1813 60.8518 20.1274 61.0047 20.0252L65.999 16.6956L70.9934 20.0252C71.1496 20.1289 71.3339 20.1823 71.5214 20.1782C71.7088 20.1741 71.8906 20.1126 72.0421 20.0022C72.1937 19.8917 72.3077 19.7374 72.369 19.5602C72.4303 19.3829 72.4358 19.1912 72.3848 19.0107L70.7072 13.1404L74.8678 9.39625C75.1402 9.15043 75.2402 8.76702 75.1228 8.41939Z" fill="#F3CD03"/>
<path d="M102.136 8.41939C102.079 8.24958 101.973 8.10037 101.831 7.99018C101.69 7.87999 101.519 7.81365 101.34 7.79934L96.1111 7.38383L93.8483 2.37482C93.7762 2.21349 93.659 2.07646 93.5108 1.98028C93.3626 1.88409 93.1897 1.83286 93.013 1.83276C92.8363 1.83267 92.6634 1.88371 92.515 1.97973C92.3667 2.07575 92.2493 2.21265 92.1771 2.3739L89.9143 7.38383L84.6851 7.79934C84.5094 7.81326 84.3415 7.8775 84.2013 7.98438C84.0612 8.09125 83.9548 8.23624 83.8949 8.40199C83.835 8.56774 83.8242 8.74724 83.8636 8.91901C83.9031 9.09078 83.9912 9.24755 84.1174 9.37056L87.9817 13.1376L86.615 19.0556C86.5735 19.2348 86.5868 19.4222 86.6532 19.5937C86.7195 19.7652 86.8359 19.9128 86.9872 20.0173C87.1385 20.1218 87.3177 20.1785 87.5016 20.1799C87.6854 20.1813 87.8655 20.1274 88.0184 20.0252L93.0127 16.6956L98.007 20.0252C98.1633 20.1289 98.3475 20.1823 98.535 20.1782C98.7225 20.1741 98.9043 20.1126 99.0558 20.0022C99.2073 19.8917 99.3214 19.7374 99.3827 19.5602C99.4439 19.3829 99.4495 19.1912 99.3985 19.0107L97.7209 13.1404L101.881 9.39625C102.154 9.15043 102.254 8.76702 102.136 8.41939Z" fill="#F3CD03"/>
<path d="M114.998 13.1377L113.631 19.0557C113.589 19.2349 113.601 19.4227 113.667 19.5945C113.734 19.7664 113.85 19.9143 114.001 20.0191C114.153 20.1238 114.332 20.1804 114.516 20.1814C114.701 20.1825 114.881 20.1281 115.033 20.0252L120.028 16.6956L125.022 20.0252C125.178 20.1289 125.363 20.1823 125.55 20.1782C125.738 20.1741 125.919 20.1127 126.071 20.0022C126.222 19.8917 126.337 19.7375 126.398 19.5602C126.459 19.383 126.465 19.1912 126.414 19.0107L124.736 13.1404L128.897 9.39628C129.03 9.27629 129.125 9.11988 129.17 8.94638C129.216 8.77289 129.209 8.58992 129.151 8.4201C129.094 8.25029 128.988 8.10107 128.846 7.99091C128.705 7.88075 128.534 7.81448 128.355 7.80029L123.126 7.38386L120.863 2.37485C120.791 2.21356 120.674 2.0766 120.526 1.98049C120.377 1.88439 120.205 1.83325 120.028 1.83325C119.851 1.83325 119.678 1.88439 119.53 1.98049C119.382 2.0766 119.264 2.21356 119.192 2.37485L116.929 7.38386L111.7 7.79937C111.525 7.81329 111.357 7.87753 111.216 7.98441C111.076 8.09128 110.97 8.23627 110.91 8.40202C110.85 8.56777 110.839 8.74727 110.879 8.91904C110.918 9.09081 111.006 9.24758 111.132 9.37059L114.998 13.1377ZM117.615 9.16972C117.778 9.15682 117.936 9.10012 118.07 9.00555C118.204 8.91098 118.31 8.78203 118.378 8.63222L120.028 4.98071L121.678 8.63222C121.745 8.78203 121.852 8.91098 121.986 9.00555C122.12 9.10012 122.277 9.15682 122.441 9.16972L126.084 9.45865L123.084 12.159C122.824 12.3938 122.72 12.7552 122.815 13.0927L123.965 17.1148L120.538 14.83C120.387 14.729 120.21 14.6751 120.029 14.6751C119.848 14.6751 119.671 14.729 119.521 14.83L115.94 17.2175L116.903 13.0478C116.938 12.8944 116.933 12.7346 116.889 12.5836C116.845 12.4326 116.762 12.2955 116.65 12.1856L113.863 9.46874L117.615 9.16972Z" fill="#F3CD03"/>
</g>
<defs>
<clipPath id="clip0_1479_9675">
<rect width="130.068" height="22.0136" fill="white" transform="translate(0.96582)"/>
</clipPath>
</defs>
</svg>
